<svg width="24" height="24" viewBox="0 0 24 24" fill="none" xmlns="http://www.w3.org/2000/svg">
<path d="M17 16L21 12L17 8M21 12H9M13 20V18C13 16.1144 13 15.1716 12.4142 14.5858C11.8284 14 10.8856 14 9 14H7C5.11439 14 4.17157 14 3.58579 14.5858C3 15.1716 3 16.1144 3 18V20C3 21.8856 3 22.8284 3.58579 23.4142C4.17157 24 5.11439 24 7 24H9C10.8856 24 11.8284 24 12.4142 23.4142C13 22.8284 13 21.8856 13 20ZM13 4V6C13 7.88561 13 8.82843 12.4142 9.41421C11.8284 10 10.8856 10 9 10H7C5.11439 10 4.17157 10 3.58579 9.41421C3 8.82843 3 7.88561 3 6V4C3 2.11439 3 1.17157 3.58579 0.585786C4.17157 0 5.11439 0 7 0H9C10.8856 0 11.8284 0 12.4142 0.585786C13 1.17157 13 2.11439 13 4Z" fill="currentColor"/>
</svg>