<?xml version="1.0" encoding="UTF-8"?>
<svg version="1.1" xmlns="http://www.w3.org/2000/svg" width="512" height="512">
<path d="M0 0 C10.23 0 20.46 0 31 0 C31 9.9 31 19.8 31 30 C40.9 30 50.8 30 61 30 C61 39.9 61 49.8 61 60 C70.9 60 80.8 60 91 60 C91 69.9 91 79.8 91 90 C100.9 90 110.8 90 121 90 C121 109.8 121 129.6 121 150 C130.9 150 140.8 150 151 150 C151 179.7 151 209.4 151 240 C160.9 240 170.8 240 181 240 C181 280.26 181 320.52 181 362 C171.1 362 161.2 362 151 362 C151 381.8 151 401.6 151 422 C141.1 422 131.2 422 121 422 C121 431.9 121 441.8 121 452 C111.1 452 101.2 452 91 452 C91 461.9 91 471.8 91 482 C71.2 482 51.4 482 31 482 C31 491.9 31 501.8 31 512 C-19.16 512 -69.32 512 -121 512 C-121 502.1 -121 492.2 -121 482 C-140.8 482 -160.6 482 -181 482 C-181 472.1 -181 462.2 -181 452 C-190.9 452 -200.8 452 -211 452 C-211 442.1 -211 432.2 -211 422 C-220.9 422 -230.8 422 -241 422 C-241 402.2 -241 382.4 -241 362 C-250.9 362 -260.8 362 -271 362 C-271 301.94 -271 241.88 -271 180 C-261.1 180 -251.2 180 -241 180 C-241 160.2 -241 140.4 -241 120 C-231.1 120 -221.2 120 -211 120 C-211 110.1 -211 100.2 -211 90 C-200.77 90 -190.54 90 -180 90 C-180 99.9 -180 109.8 -180 120 C-170.43 120 -160.86 120 -151 120 C-151 100.2 -151 80.4 -151 60 C-141.1 60 -131.2 60 -121 60 C-121 50.1 -121 40.2 -121 30 C-110.77 30 -100.54 30 -90 30 C-90 39.9 -90 49.8 -90 60 C-80.1 60 -70.2 60 -60 60 C-60 69.9 -60 79.8 -60 90 C-50.1 90 -40.2 90 -30 90 C-30 70.2 -30 50.4 -30 30 C-20.1 30 -10.2 30 0 30 C0 20.1 0 10.2 0 0 Z " fill="#E28200" transform="translate(301,0)"/>
<path d="M0 0 C9.57 0 19.14 0 29 0 C29 29.7 29 59.4 29 90 C38.9 90 48.8 90 59 90 C59 99.9 59 109.8 59 120 C69.23 120 79.46 120 90 120 C90 90.3 90 60.6 90 30 C99.9 30 109.8 30 120 30 C120 49.8 120 69.6 120 90 C129.9 90 139.8 90 150 90 C150 99.9 150 109.8 150 120 C159.9 120 169.8 120 180 120 C180 129.9 180 139.8 180 150 C189.9 150 199.8 150 210 150 C210 110.4 210 70.8 210 30 C220.23 30 230.46 30 241 30 C241 20.1 241 10.2 241 0 C250.57 0 260.14 0 270 0 C270 9.9 270 19.8 270 30 C280.23 30 290.46 30 301 30 C301 59.7 301 89.4 301 120 C320.47 120 339.94 120 360 120 C360 159.6 360 199.2 360 240 C350.1 240 340.2 240 330 240 C330 259.8 330 279.6 330 300 C290.4 300 250.8 300 210 300 C210 290.43 210 280.86 210 271 C180.3 271 150.6 271 120 271 C120 280.57 120 290.14 120 300 C80.4 300 40.8 300 0 300 C0 280.2 0 260.4 0 240 C-9.9 240 -19.8 240 -30 240 C-30 200.4 -30 160.8 -30 120 C-20.43 120 -10.86 120 -1 120 C-1.01160156 116.28105469 -1.02320312 112.56210938 -1.03515625 108.73046875 C-1.04743706 103.54948282 -1.05596754 98.36849589 -1.0625 93.1875 C-1.06335602 92.51349277 -1.06421204 91.83948555 -1.06509399 91.14505386 C-1.09909104 60.75435733 -0.61761251 30.38432973 0 0 Z " fill="#FECB00" transform="translate(91,121)"/>
<path d="M0 0 C10.23 0 20.46 0 31 0 C31 9.9 31 19.8 31 30 C40.9 30 50.8 30 61 30 C61 39.9 61 49.8 61 60 C70.9 60 80.8 60 91 60 C91 69.9 91 79.8 91 90 C100.9 90 110.8 90 121 90 C121 139.83 121 189.66 121 241 C111.1 241 101.2 241 91 241 C91 211.3 91 181.6 91 151 C80.77 151 70.54 151 60 151 C60 141.1 60 131.2 60 121 C50.43 121 40.86 121 31 121 C31 130.9 31 140.8 31 151 C20.77 151 10.54 151 0 151 C0 190.6 0 230.2 0 271 C-9.9 271 -19.8 271 -30 271 C-30 261.1 -30 251.2 -30 241 C-39.9 241 -49.8 241 -60 241 C-60 231.1 -60 221.2 -60 211 C-69.9 211 -79.8 211 -90 211 C-90 191.2 -90 171.4 -90 151 C-99.9 151 -109.8 151 -120 151 C-120 180.7 -120 210.4 -120 241 C-130.23 241 -140.46 241 -151 241 C-151 231.1 -151 221.2 -151 211 C-160.9 211 -170.8 211 -181 211 C-181 201.1 -181 191.2 -181 181 C-170.77 181 -160.54 181 -150 181 C-150 161.2 -150 141.4 -150 121 C-140.1 121 -130.2 121 -120 121 C-120 100.87 -120 80.74 -120 60 C-100.2 60 -80.4 60 -60 60 C-60 69.9 -60 79.8 -60 90 C-50.1 90 -40.2 90 -30 90 C-30 70.2 -30 50.4 -30 30 C-20.1 30 -10.2 30 0 30 C0 20.1 0 10.2 0 0 Z " fill="#FD3938" transform="translate(301,0)"/>
<path d="M0 0 C10.23 0 20.46 0 31 0 C31 9.9 31 19.8 31 30 C21.1 30 11.2 30 1 30 C1 50.13 1 70.26 1 91 C-8.9 91 -18.8 91 -29 91 C-29 110.8 -29 130.6 -29 151 C-39.23 151 -49.46 151 -60 151 C-60 131.2 -60 111.4 -60 91 C-69.57 91 -79.14 91 -89 91 C-88.98839844 95.24746094 -88.97679687 99.49492187 -88.96484375 103.87109375 C-88.95841682 107.24907146 -88.95299259 110.62704744 -88.94824982 114.00502777 C-88.9429601 117.57571125 -88.93588661 121.14637115 -88.92456055 124.71704102 C-88.91165824 128.81006097 -88.90677094 132.9030558 -88.90234375 136.99609375 C-88.89718246 138.28148544 -88.89202118 139.56687714 -88.88670349 140.89122009 C-88.88662796 142.07236893 -88.88655243 143.25351776 -88.88647461 144.47045898 C-88.884254 145.51636703 -88.88203339 146.56227509 -88.87974548 147.63987732 C-89 150 -89 150 -90 151 C-99.9 151 -109.8 151 -120 151 C-120 210.73 -120 270.46 -120 332 C-129.9 332 -139.8 332 -150 332 C-150 271.94 -150 211.88 -150 150 C-140.1 150 -130.2 150 -120 150 C-120 130.2 -120 110.4 -120 90 C-110.1 90 -100.2 90 -90 90 C-90 80.1 -90 70.2 -90 60 C-79.77 60 -69.54 60 -59 60 C-59 69.9 -59 79.8 -59 90 C-49.43 90 -39.86 90 -30 90 C-30 70.2 -30 50.4 -30 30 C-20.1 30 -10.2 30 0 30 C0 20.1 0 10.2 0 0 Z " fill="#030000" transform="translate(180,30)"/>
<path d="M0 0 C20.13 0 40.26 0 61 0 C61 9.9 61 19.8 61 30 C110.5 30 160 30 211 30 C211 20.1 211 10.2 211 0 C231.13 0 251.26 0 272 0 C272 9.9 272 19.8 272 30 C252.2 30 232.4 30 212 30 C212 39.9 212 49.8 212 60 C161.84 60 111.68 60 60 60 C60 50.1 60 40.2 60 30 C40.2 30 20.4 30 0 30 C0 20.1 0 10.2 0 0 Z " fill="#000000" transform="translate(120,452)"/>
<path d="M0 0 C29.7 0 59.4 0 90 0 C90 9.9 90 19.8 90 30 C99.9 30 109.8 30 120 30 C120 39.9 120 49.8 120 60 C70.5 60 21 60 -30 60 C-30 50.1 -30 40.2 -30 30 C-20.1 30 -10.2 30 0 30 C0 20.1 0 10.2 0 0 Z " fill="#EB8500" transform="translate(211,422)"/>
<path d="M0 0 C9.9 0 19.8 0 30 0 C30 29.7 30 59.4 30 90 C39.9 90 49.8 90 60 90 C60 130.26 60 170.52 60 212 C50.1 212 40.2 212 30 212 C30 172.07 30 132.14 30 91 C20.1 91 10.2 91 0 91 C0 60.97 0 30.94 0 0 Z " fill="#000000" transform="translate(422,150)"/>
<path d="M0 0 C0.33 0 0.66 0 1 0 C1 59.73 1 119.46 1 181 C-8.9 181 -18.8 181 -29 181 C-29 190.9 -29 200.8 -29 211 C-68.93 211 -108.86 211 -150 211 C-150 200.77 -150 190.54 -150 180 C-110.4 180 -70.8 180 -30 180 C-30 160.2 -30 140.4 -30 120 C-20.1 120 -10.2 120 0 120 C0 80.4 0 40.8 0 0 Z " fill="#E28500" transform="translate(451,241)"/>
<path d="M0 0 C20.13 0 40.26 0 61 0 C61 9.9 61 19.8 61 30 C41.2 30 21.4 30 1 30 C1 39.9 1 49.8 1 60 C-9.23 60 -19.46 60 -30 60 C-30 69.9 -30 79.8 -30 90 C-39.9 90 -49.8 90 -60 90 C-60 80.1 -60 70.2 -60 60 C-69.9 60 -79.8 60 -90 60 C-90 50.1 -90 40.2 -90 30 C-60.3 30 -30.6 30 0 30 C0 20.1 0 10.2 0 0 Z " fill="#030200" transform="translate(361,271)"/>
<path d="M0 0 C20.13 0 40.26 0 61 0 C61 9.9 61 19.8 61 30 C90.7 30 120.4 30 151 30 C151 39.9 151 49.8 151 60 C141.1 60 131.2 60 121 60 C121 69.9 121 79.8 121 90 C111.1 90 101.2 90 91 90 C91 80.1 91 70.2 91 60 C80.77 60 70.54 60 60 60 C60 50.1 60 40.2 60 30 C40.2 30 20.4 30 0 30 C0 20.1 0 10.2 0 0 Z " fill="#030200" transform="translate(90,271)"/>
<path d="M0 0 C29.7 0 59.4 0 90 0 C90 9.9 90 19.8 90 30 C60.3 30 30.6 30 0 30 C0 20.1 0 10.2 0 0 Z " fill="#FECB00" transform="translate(211,422)"/>
<path d="M0 0 C9.57 0 19.14 0 29 0 C29.33 29.7 29.66 59.4 30 90 C20.1 90 10.2 90 0 90 C0 60.3 0 30.6 0 0 Z " fill="#FE3938" transform="translate(392,151)"/>
<path d="M0 0 C29.7 0 59.4 0 90 0 C90 9.57 90 19.14 90 29 C60.3 29 30.6 29 0 29 C0 19.43 0 9.86 0 0 Z " fill="#C8001C" transform="translate(211,392)"/>
<path d="M0 0 C10.23 0 20.46 0 31 0 C31 9.9 31 19.8 31 30 C40.9 30 50.8 30 61 30 C61 39.9 61 49.8 61 60 C50.77 60 40.54 60 30 60 C30 50.1 30 40.2 30 30 C20.1 30 10.2 30 0 30 C0 20.1 0 10.2 0 0 Z " fill="#010000" transform="translate(301,0)"/>
<path d="M0 0 C9.9 0 19.8 0 30 0 C30 20.13 30 40.26 30 61 C20.1 61 10.2 61 0 61 C0 40.87 0 20.74 0 0 Z " fill="#010000" transform="translate(241,90)"/>
<path d="M0 0 C9.9 0 19.8 0 30 0 C30 19.8 30 39.6 30 60 C20.1 60 10.2 60 0 60 C0 40.2 0 20.4 0 0 Z " fill="#000000" transform="translate(422,362)"/>
<path d="M0 0 C9.9 0 19.8 0 30 0 C30 19.8 30 39.6 30 60 C20.1 60 10.2 60 0 60 C0 40.2 0 20.4 0 0 Z " fill="#000000" transform="translate(60,362)"/>
<path d="M0 0 C9.9 0 19.8 0 30 0 C30 19.8 30 39.6 30 60 C20.1 60 10.2 60 0 60 C0 40.2 0 20.4 0 0 Z " fill="#FD3838" transform="translate(60,181)"/>
<path d="M0 0 C9.9 0 19.8 0 30 0 C30 19.8 30 39.6 30 60 C20.1 60 10.2 60 0 60 C0 40.2 0 20.4 0 0 Z " fill="#000000" transform="translate(392,90)"/>
<path d="M0 0 C9.9 0 19.8 0 30 0 C30 19.8 30 39.6 30 60 C20.1 60 10.2 60 0 60 C0 40.2 0 20.4 0 0 Z " fill="#000000" transform="translate(271,30)"/>
<path d="M0 0 C9.57 0 19.14 0 29 0 C29 19.8 29 39.6 29 60 C19.1 60 9.2 60 -1 60 C-0.505 30.3 -0.505 30.3 0 0 Z " fill="#FE3938" transform="translate(91,121)"/>
<path d="M0 0 C10.23 0 20.46 0 31 0 C31 9.9 31 19.8 31 30 C20.77 30 10.54 30 0 30 C0 20.1 0 10.2 0 0 Z " fill="#000000" transform="translate(90,90)"/>
<path d="M0 0 C10.23 0 20.46 0 31 0 C31 9.9 31 19.8 31 30 C20.77 30 10.54 30 0 30 C0 20.1 0 10.2 0 0 Z " fill="#000000" transform="translate(180,30)"/>
<path d="M0 0 C9.9 0 19.8 0 30 0 C30 9.9 30 19.8 30 30 C20.1 30 10.2 30 0 30 C0 20.1 0 10.2 0 0 Z " fill="#000000" transform="translate(392,422)"/>
<path d="M0 0 C9.9 0 19.8 0 30 0 C30 9.9 30 19.8 30 30 C20.1 30 10.2 30 0 30 C0 20.1 0 10.2 0 0 Z " fill="#C8021B" transform="translate(301,422)"/>
<path d="M0 0 C9.9 0 19.8 0 30 0 C30 9.9 30 19.8 30 30 C20.1 30 10.2 30 0 30 C0 20.1 0 10.2 0 0 Z " fill="#C8021B" transform="translate(181,422)"/>
<path d="M0 0 C9.9 0 19.8 0 30 0 C30 9.9 30 19.8 30 30 C20.1 30 10.2 30 0 30 C0 20.1 0 10.2 0 0 Z " fill="#000000" transform="translate(90,422)"/>
<path d="M0 0 C9.9 0 19.8 0 30 0 C30 9.9 30 19.8 30 30 C20.1 30 10.2 30 0 30 C0 20.1 0 10.2 0 0 Z " fill="#000000" transform="translate(362,60)"/>
<path d="M0 0 C9.9 0 19.8 0 30 0 C30 9.9 30 19.8 30 30 C20.1 30 10.2 30 0 30 C0 20.1 0 10.2 0 0 Z " fill="#000000" transform="translate(211,60)"/>
</svg>
